<svg width="256" height="256" viewBox="0 0 256 256" fill="none" xmlns="http://www.w3.org/2000/svg">
<rect width="256" height="256" fill="#462521"/>
<path d="M68.8995 96.853C68.4302 96.9469 68.1955 97.2755 68.1955 97.8388C68.1955 98.4022 68.4537 98.7308 68.97 98.8246C72.4431 99.5288 75.0011 100.937 76.6438 103.05C78.3335 105.162 79.1783 107.533 79.1783 110.161C79.1783 114.339 77.8172 117.672 75.095 120.16C72.3727 122.601 68.5241 123.822 63.549 123.822H37.5V74.25H59.4656C65.0509 74.25 69.3454 75.3062 72.3493 77.4187C75.4001 79.5311 76.9254 82.7467 76.9254 87.0654C76.9254 89.2718 76.198 91.2668 74.743 93.0507C73.288 94.7875 71.3402 96.055 68.8995 96.853ZM59.2544 94.5294C61.7889 94.5294 63.6898 93.9426 64.957 92.769C66.2242 91.5485 66.8579 89.9994 66.8579 88.1216C66.8579 86.2909 66.2242 84.8826 64.957 83.8968C63.7367 82.911 61.8358 82.4181 59.2544 82.4181H47.0747V94.5294H59.2544ZM61.0849 115.654C63.901 115.654 66.013 115.043 67.4211 113.823C68.8761 112.602 69.6036 111.006 69.6036 109.035C69.6036 107.11 68.8526 105.537 67.3507 104.317C65.8488 103.05 63.7602 102.416 61.0849 102.416H47.0747V115.654H61.0849Z" fill="#FFDCCC"/>
<path d="M117.102 104.739C117.102 105.491 117.031 106.406 116.89 107.486H89.8559C90.1844 110.302 91.217 112.509 92.9536 114.105C94.6902 115.701 96.9665 116.499 99.7826 116.499C103.584 116.499 106.095 114.621 107.316 110.866H116.468C115.623 114.95 113.793 118.236 110.977 120.724C108.207 123.165 104.453 124.385 99.7122 124.385C95.8166 124.385 92.4608 123.564 89.6447 121.921C86.8286 120.278 84.693 118.024 83.238 115.161C81.783 112.25 81.0555 108.941 81.0555 105.232C81.0555 101.383 81.8065 98.0266 83.3084 95.1631C84.8103 92.2526 86.9459 90.0228 89.7151 88.4737C92.5312 86.8777 95.8166 86.0796 99.5714 86.0796C102.622 86.0796 105.462 86.7368 108.09 88.0512C110.765 89.3187 112.924 91.3607 114.567 94.1773C116.257 96.9469 117.102 100.468 117.102 104.739ZM108.09 101.289C107.902 98.942 107.104 97.0408 105.696 95.5856C104.288 94.1303 102.341 93.4027 99.853 93.4027C94.5024 93.4027 91.2874 96.0315 90.2079 101.289H108.09Z" fill="#FFDCCC"/>
<path d="M131.264 94.5294V111.499C131.264 113.001 131.311 114.034 131.404 114.597C131.545 115.161 131.85 115.536 132.32 115.724C132.836 115.865 133.775 115.935 135.136 115.935H141.402V123.822H133.235C130.653 123.822 128.565 123.493 126.969 122.836C125.373 122.132 124.176 120.958 123.378 119.315C122.628 117.672 122.252 115.372 122.252 112.415V94.5294H115.493V86.6429H122.252V76.5033H131.264V86.6429H141.402V94.5294H131.264Z" fill="#FFDCCC"/>
<path d="M156.721 94.5294V111.499C156.721 113.001 156.768 114.034 156.862 114.597C157.003 115.161 157.308 115.536 157.777 115.724C158.294 115.865 159.232 115.935 160.593 115.935H166.859V123.822H158.693C156.111 123.822 154.022 123.493 152.427 122.836C150.831 122.132 149.634 120.958 148.836 119.315C148.085 117.672 147.71 115.372 147.71 112.415V94.5294H140.951V86.6429H147.71V76.5033H156.721V86.6429H166.859V94.5294H156.721Z" fill="#FFDCCC"/>
<path d="M203.581 104.739C203.581 105.491 203.511 106.406 203.37 107.486H176.336C176.664 110.302 177.697 112.509 179.433 114.105C181.17 115.701 183.446 116.499 186.262 116.499C190.064 116.499 192.575 114.621 193.795 110.866H202.948C202.103 114.95 200.272 118.236 197.456 120.724C194.687 123.165 190.932 124.385 186.192 124.385C182.296 124.385 178.94 123.564 176.124 121.921C173.308 120.278 171.173 118.024 169.718 115.161C168.263 112.25 167.535 108.941 167.535 105.232C167.535 101.383 168.286 98.0266 169.788 95.1631C171.29 92.2526 173.426 90.0228 176.195 88.4737C179.011 86.8777 182.296 86.0796 186.051 86.0796C189.102 86.0796 191.941 86.7368 194.57 88.0512C197.245 89.3187 199.404 91.3607 201.047 94.1773C202.737 96.9469 203.581 100.468 203.581 104.739ZM194.57 101.289C194.382 98.942 193.584 97.0408 192.176 95.5856C190.768 94.1303 188.82 93.4027 186.333 93.4027C180.982 93.4027 177.767 96.0315 176.688 101.289H194.57Z" fill="#FFDCCC"/>
<path d="M214.349 94.5998C214.537 94.5998 214.701 94.5294 214.842 94.3885C214.983 94.2008 215.077 94.0365 215.124 93.8956C215.968 91.971 216.837 90.4688 217.728 89.3891C218.62 88.3094 219.911 87.4879 221.601 86.9246C223.29 86.3613 225.59 86.0796 228.5 86.0796V95.2335C227.937 95.1866 227.162 95.1631 226.177 95.1631C221.999 95.1631 219.09 96.1489 217.447 98.1205C215.804 100.045 214.983 103.237 214.983 107.697V123.822H205.971V86.6429H214.983V88.685C214.983 90.1402 214.631 91.572 213.927 92.9802C213.739 93.3558 213.645 93.6609 213.645 93.8956C213.645 94.2712 213.856 94.5059 214.279 94.5998H214.349Z" fill="#FFDCCC"/>
<path d="M79.1783 131.615V181.187H69.6036V160.626H47.0747V181.187H37.5V131.615H47.0747V152.176H69.6036V131.615H79.1783Z" fill="#FB591B"/>
<path d="M82.7056 170.977C82.7056 167.127 83.9259 164.287 86.3665 162.456C88.8541 160.579 92.1395 159.523 96.2229 159.288L99.8134 159.147C103.005 159.053 105.281 158.842 106.642 158.513C108.004 158.185 108.661 157.387 108.614 156.119C108.567 154.523 108.027 153.232 106.994 152.246C105.962 151.261 104.014 150.768 101.151 150.768C98.2411 150.768 96.176 151.284 94.9556 152.317C93.7353 153.303 92.9844 154.664 92.7028 156.401H83.832C84.4422 151.988 86.39 148.726 89.6755 146.613C92.9609 144.501 96.88 143.445 101.433 143.445C106.408 143.445 110.35 144.665 113.26 147.106C116.17 149.547 117.625 154.054 117.625 160.626V181.187H108.614V178.581C108.614 177.173 108.966 175.812 109.67 174.497C109.858 174.028 109.951 173.676 109.951 173.441C109.951 173.159 109.834 172.972 109.599 172.878L109.318 172.807C109.036 172.807 108.825 172.948 108.684 173.23C108.543 173.465 108.473 173.605 108.473 173.652C106.267 179.051 101.996 181.75 95.6597 181.75C93.3599 181.75 91.2008 181.281 89.1826 180.342C87.2114 179.403 85.639 178.112 84.4657 176.469C83.2923 174.826 82.7056 172.995 82.7056 170.977ZM108.614 162.034C107.675 163.067 106.431 163.794 104.882 164.217C103.38 164.592 101.01 164.944 97.7718 165.273C95.7535 165.508 94.2282 166.048 93.1956 166.893C92.2099 167.691 91.7171 168.888 91.7171 170.484C91.7171 171.845 92.2334 172.948 93.266 173.793C94.3455 174.638 95.7301 175.061 97.4197 175.061C98.0299 175.061 98.4992 175.037 98.8278 174.99C101.597 174.615 103.897 173.418 105.727 171.399C107.605 169.381 108.567 166.259 108.614 162.034Z" fill="#FB591B"/>
<path d="M131.872 130.488V181.187H122.86V130.488H131.872Z" fill="#FB591B"/>
<path d="M150.417 171.188C150.746 172.268 150.91 173.629 150.91 175.272C150.91 175.976 151.192 176.328 151.755 176.328C152.318 176.328 152.6 175.976 152.6 175.272C152.6 173.629 152.764 172.268 153.093 171.188L161.33 144.008H170.905L158.232 181.187H145.278L132.606 144.008H142.18L150.417 171.188Z" fill="#FB591B"/>
<path d="M204.888 162.104C204.888 162.855 204.817 163.771 204.676 164.851H177.642C177.97 167.667 179.003 169.873 180.74 171.469C182.476 173.066 184.752 173.864 187.569 173.864C191.37 173.864 193.881 171.986 195.102 168.23H204.254C203.409 172.314 201.579 175.6 198.763 178.088C195.993 180.529 192.239 181.75 187.498 181.75C183.603 181.75 180.247 180.929 177.431 179.285C174.615 177.642 172.479 175.389 171.024 172.526C169.569 169.615 168.842 166.306 168.842 162.597C168.842 158.748 169.592 155.392 171.094 152.528C172.596 149.618 174.732 147.388 177.501 145.839C180.317 144.243 183.603 143.445 187.357 143.445C190.408 143.445 193.248 144.102 195.876 145.416C198.551 146.684 200.71 148.726 202.353 151.542C204.043 154.312 204.888 157.833 204.888 162.104ZM195.876 158.654C195.688 156.307 194.89 154.406 193.482 152.95C192.074 151.495 190.127 150.768 187.639 150.768C182.288 150.768 179.073 153.396 177.994 158.654H195.876Z" fill="#FB591B"/>
<path d="M206.748 181.187C206.748 176.217 210.776 172.188 215.745 172.188C220.714 172.188 224.742 176.217 224.742 181.187C224.742 181.187 211.717 181.187 206.748 181.187Z" fill="#FB591B"/>
</svg>
