<svg width="256" height="216" viewBox="0 0 256 216" fill="none" xmlns="http://www.w3.org/2000/svg">
<mask id="mask0_740_1910" style="mask-type:alpha" maskUnits="userSpaceOnUse" x="0" y="0" width="256" height="216">
<path d="M31.3736 215.149H224.626C235.608 215.149 241.099 215.149 245.294 213.012C248.983 211.132 251.983 208.132 253.863 204.443C256 200.248 256 194.757 256 183.775V51.5268C256 40.545 256 35.0541 253.863 30.8596C251.983 27.17 248.983 24.1703 245.294 22.2904C241.099 20.1532 235.608 20.1532 224.626 20.1532H118.604C112.749 20.1532 105.26 19.6085 97.9064 14.0255C90.5532 8.44255 96.817 13.2085 89.0553 7.21702C81.2936 1.22553 77.3355 0 70.5362 0H31.3736C20.3918 0 14.9009 9.09034e-07 10.7064 2.1372C7.01685 4.01714 4.01713 7.01686 2.1372 10.7064C0 14.9009 0 20.3918 0 31.3736V183.775C0 194.757 0 200.248 2.1372 204.443C4.01713 208.132 7.01685 211.132 10.7064 213.012C14.9009 215.149 20.3918 215.149 31.3736 215.149Z" fill="url(#paint0_linear_740_1910)"/>
<path d="M31.374 0.817383H70.5361C73.8824 0.817383 76.4638 1.11897 79.1475 2.12695C81.8454 3.14032 84.7004 4.8873 88.5557 7.86328C96.2822 13.8276 90.0689 9.10039 97.4121 14.6758C104.98 20.4219 112.691 20.9697 118.604 20.9697H224.626C230.13 20.9697 234.21 20.9706 237.438 21.2344C240.658 21.4974 242.96 22.0184 244.923 23.0186C248.459 24.8202 251.333 27.6947 253.135 31.2305C254.135 33.1933 254.656 35.4956 254.919 38.7148C255.183 41.9435 255.183 46.0224 255.183 51.5264V183.775C255.183 189.28 255.183 193.359 254.919 196.588C254.656 199.807 254.135 202.109 253.135 204.071C251.333 207.607 248.459 210.483 244.923 212.284C242.96 213.284 240.658 213.804 237.438 214.067C234.21 214.331 230.13 214.332 224.626 214.332H31.374C25.8698 214.332 21.7903 214.331 18.5615 214.067C15.3423 213.804 13.04 213.284 11.0771 212.284C7.5413 210.483 4.66684 207.607 2.86523 204.071C1.8652 202.109 1.34407 199.807 1.08105 196.588C0.883206 194.166 0.833834 191.266 0.821289 187.646L0.817383 183.775V31.374C0.817383 25.8698 0.817273 21.7903 1.08105 18.5615C1.34408 15.3423 1.8651 13.04 2.86523 11.0771C4.66681 7.54145 7.54145 4.66681 11.0771 2.86523C13.04 1.8651 15.3423 1.34408 18.5615 1.08105C21.7903 0.817273 25.8698 0.817383 31.374 0.817383Z" stroke="url(#paint1_linear_740_1910)" stroke-opacity="0.07" stroke-width="1.63404"/>
</mask>
<g mask="url(#mask0_740_1910)">
<path d="M31.3736 215.149H224.626C235.608 215.149 241.099 215.149 245.294 213.012C248.983 211.132 251.983 208.132 253.863 204.443C256 200.248 256 194.757 256 183.775V51.5268C256 40.545 256 35.0541 253.863 30.8596C251.983 27.17 248.983 24.1703 245.294 22.2904C241.099 20.1532 235.608 20.1532 224.626 20.1532H118.604C112.749 20.1532 105.26 19.6085 97.9064 14.0255C90.5532 8.44255 96.817 13.2085 89.0553 7.21702C81.2936 1.22553 77.3355 0 70.5362 0H31.3736C20.3918 0 14.9009 9.09034e-07 10.7064 2.1372C7.01685 4.01714 4.01713 7.01686 2.1372 10.7064C0 14.9009 0 20.3918 0 31.3736V183.775C0 194.757 0 200.248 2.1372 204.443C4.01713 208.132 7.01685 211.132 10.7064 213.012C14.9009 215.149 20.3918 215.149 31.3736 215.149Z" fill="url(#paint2_linear_740_1910)"/>
<path d="M31.374 0.817383H70.5361C73.8824 0.817383 76.4638 1.11897 79.1475 2.12695C81.8454 3.14032 84.7004 4.8873 88.5557 7.86328C96.2822 13.8276 90.0689 9.10039 97.4121 14.6758C104.98 20.4219 112.691 20.9697 118.604 20.9697H224.626C230.13 20.9697 234.21 20.9706 237.438 21.2344C240.658 21.4974 242.96 22.0184 244.923 23.0186C248.459 24.8202 251.333 27.6947 253.135 31.2305C254.135 33.1933 254.656 35.4956 254.919 38.7148C255.183 41.9435 255.183 46.0224 255.183 51.5264V183.775C255.183 189.28 255.183 193.359 254.919 196.588C254.656 199.807 254.135 202.109 253.135 204.071C251.333 207.607 248.459 210.483 244.923 212.284C242.96 213.284 240.658 213.804 237.438 214.067C234.21 214.331 230.13 214.332 224.626 214.332H31.374C25.8698 214.332 21.7903 214.331 18.5615 214.067C15.3423 213.804 13.04 213.284 11.0771 212.284C7.5413 210.483 4.66684 207.607 2.86523 204.071C1.8652 202.109 1.34407 199.807 1.08105 196.588C0.883206 194.166 0.833834 191.266 0.821289 187.646L0.817383 183.775V31.374C0.817383 25.8698 0.817273 21.7903 1.08105 18.5615C1.34408 15.3423 1.8651 13.04 2.86523 11.0771C4.66681 7.54145 7.54145 4.66681 11.0771 2.86523C13.04 1.8651 15.3423 1.34408 18.5615 1.08105C21.7903 0.817273 25.8698 0.817383 31.374 0.817383Z" stroke="url(#paint3_linear_740_1910)" stroke-opacity="0.07" stroke-width="1.63404"/>
<g filter="url(#filter0_dii_740_1910)">
<rect y="36.4937" width="256" height="178.655" rx="19.6085" fill="url(#paint4_linear_740_1910)"/>
</g>
<g filter="url(#filter1_di_740_1910)">
<rect y="188.46" width="256" height="4.90213" fill="white" fill-opacity="0.1" shape-rendering="crispEdges"/>
</g>
<g filter="url(#filter2_di_740_1910)">
<rect y="198.536" width="256" height="4.90213" fill="white" fill-opacity="0.1" shape-rendering="crispEdges"/>
</g>
</g>
<g filter="url(#filter3_di_740_1910)">
<path d="M162.995 159.153L101.814 97.9245C100.761 96.8394 100.234 95.5788 100.234 94.1426C100.234 92.6745 100.745 91.4139 101.766 90.3607C102.755 89.2756 104 88.733 105.5 88.733C107.032 88.733 108.324 89.2756 109.378 90.3607L170.559 151.542C171.612 152.659 172.138 153.935 172.138 155.371C172.138 156.807 171.628 158.068 170.606 159.153C169.617 160.206 168.356 160.733 166.824 160.733C165.324 160.765 164.048 160.238 162.995 159.153ZM121.537 112.478L123.931 110.18L107.415 93.616C107.096 93.2968 106.697 93.1373 106.218 93.1373C105.771 93.1373 105.388 93.2968 105.069 93.616C104.718 93.9671 104.543 94.366 104.543 94.8128C104.543 95.2596 104.718 95.6426 105.069 95.9617L121.537 112.478ZM145.234 101.036C144.819 101.036 144.484 100.925 144.229 100.701C143.973 100.478 143.83 100.175 143.798 99.7915C143.383 97.1107 142.888 94.9085 142.314 93.1851C141.771 91.4617 140.989 90.0734 139.968 89.0203C138.979 87.9671 137.622 87.1532 135.899 86.5788C134.176 86.0043 131.926 85.5096 129.149 85.0947C128.287 84.9351 127.856 84.4883 127.856 83.7543C127.856 82.9245 128.287 82.4458 129.149 82.3181C131.926 81.9032 134.16 81.4085 135.851 80.8341C137.543 80.2277 138.867 79.4139 139.824 78.3926C140.814 77.3394 141.58 75.9511 142.122 74.2277C142.697 72.5043 143.255 70.3022 143.798 67.6213C143.957 66.7915 144.436 66.3766 145.234 66.3766C145.968 66.3766 146.415 66.8075 146.574 67.6692C146.989 70.2862 147.468 72.4564 148.011 74.1798C148.585 75.8713 149.367 77.2437 150.356 78.2968C151.378 79.35 152.75 80.1798 154.473 80.7862C156.229 81.3926 158.495 81.9032 161.271 82.3181C162.101 82.4458 162.516 82.9245 162.516 83.7543C162.516 84.5203 162.101 84.9671 161.271 85.0947C158.495 85.5096 156.245 86.0203 154.521 86.6266C152.83 87.2011 151.489 88.0149 150.5 89.0681C149.543 90.0894 148.777 91.4777 148.202 93.233C147.66 94.9564 147.117 97.1585 146.574 99.8394C146.511 100.19 146.351 100.478 146.096 100.701C145.84 100.925 145.553 101.036 145.234 101.036ZM91.8564 140.292C91.1543 140.292 90.7394 139.909 90.6117 139.143C90.2606 136.877 89.9255 135.089 89.6064 133.781C89.2872 132.44 88.7926 131.419 88.1223 130.717C87.484 130.015 86.4787 129.472 85.1064 129.089C83.766 128.706 81.867 128.323 79.4096 127.94C78.6436 127.813 78.2606 127.398 78.2606 126.696C78.2606 125.962 78.6436 125.547 79.4096 125.451C81.867 125.068 83.766 124.685 85.1064 124.302C86.4787 123.919 87.484 123.377 88.1223 122.675C88.7926 121.94 89.2872 120.919 89.6064 119.611C89.9255 118.27 90.2606 116.483 90.6117 114.249C90.7394 113.483 91.1543 113.1 91.8564 113.1C92.5904 113.1 93.0213 113.483 93.1489 114.249C93.5 116.483 93.8351 118.27 94.1543 119.611C94.4734 120.919 94.9521 121.94 95.5904 122.675C96.2606 123.377 97.266 123.919 98.6064 124.302C99.9787 124.685 101.894 125.068 104.351 125.451C105.117 125.547 105.5 125.962 105.5 126.696C105.5 127.398 105.117 127.813 104.351 127.94C101.894 128.323 99.9787 128.706 98.6064 129.089C97.266 129.472 96.2606 130.015 95.5904 130.717C94.9521 131.419 94.4734 132.44 94.1543 133.781C93.8351 135.089 93.5 136.877 93.1489 139.143C93.0213 139.909 92.5904 140.292 91.8564 140.292ZM107.846 153.792C107.303 153.792 106.936 153.456 106.745 152.786C106.362 151.031 106.043 149.754 105.787 148.956C105.532 148.127 105.005 147.552 104.207 147.233C103.441 146.882 102.053 146.515 100.043 146.132C99.4043 146.004 99.0851 145.637 99.0851 145.031C99.0851 144.425 99.4202 144.057 100.09 143.93C102.069 143.611 103.457 143.292 104.255 142.972C105.053 142.621 105.564 142.047 105.787 141.249C106.043 140.419 106.362 139.111 106.745 137.323C106.936 136.621 107.303 136.27 107.846 136.27C108.452 136.27 108.819 136.589 108.947 137.228C109.266 139.047 109.553 140.371 109.809 141.201C110.064 141.999 110.59 142.557 111.388 142.877C112.218 143.196 113.638 143.547 115.649 143.93C116.287 144.057 116.606 144.425 116.606 145.031C116.606 145.637 116.287 146.004 115.649 146.132C113.638 146.515 112.218 146.882 111.388 147.233C110.559 147.552 110.016 148.127 109.761 148.956C109.505 149.754 109.234 151.031 108.947 152.786C108.819 153.456 108.452 153.792 107.846 153.792Z" fill="#3FABE6"/>
</g>
<defs>
<filter id="filter0_dii_740_1910" x="-17.4298" y="14.7064" width="290.86" height="213.515" filterUnits="userSpaceOnUse" color-interpolation-filters="sRGB">
<feFlood flood-opacity="0" result="BackgroundImageFix"/>
<feColorMatrix in="SourceAlpha" type="matrix" values="0 0 0 0 0 0 0 0 0 0 0 0 0 0 0 0 0 0 127 0" result="hardAlpha"/>
<feOffset dy="-4.35745"/>
<feGaussianBlur stdDeviation="8.71489"/>
<feComposite in2="hardAlpha" operator="out"/>
<feColorMatrix type="matrix" values="0 0 0 0 0 0 0 0 0 0.517647 0 0 0 0 0.803922 0 0 0 0.5 0"/>
<feBlend mode="multiply" in2="BackgroundImageFix" result="effect1_dropShadow_740_1910"/>
<feBlend mode="normal" in="SourceGraphic" in2="effect1_dropShadow_740_1910" result="shape"/>
<feColorMatrix in="SourceAlpha" type="matrix" values="0 0 0 0 0 0 0 0 0 0 0 0 0 0 0 0 0 0 127 0" result="hardAlpha"/>
<feOffset dy="-8.71489"/>
<feGaussianBlur stdDeviation="17.4298"/>
<feComposite in2="hardAlpha" operator="arithmetic" k2="-1" k3="1"/>
<feColorMatrix type="matrix" values="0 0 0 0 0.0466319 0 0 0 0 0.440508 0 0 0 0 0.658333 0 0 0 0.3 0"/>
<feBlend mode="multiply" in2="shape" result="effect2_innerShadow_740_1910"/>
<feColorMatrix in="SourceAlpha" type="matrix" values="0 0 0 0 0 0 0 0 0 0 0 0 0 0 0 0 0 0 127 0" result="hardAlpha"/>
<feOffset dy="1.63404"/>
<feGaussianBlur stdDeviation="0.817021"/>
<feComposite in2="hardAlpha" operator="arithmetic" k2="-1" k3="1"/>
<feColorMatrix type="matrix" values="0 0 0 0 1 0 0 0 0 1 0 0 0 0 1 0 0 0 0.2 0"/>
<feBlend mode="normal" in2="effect2_innerShadow_740_1910" result="effect3_innerShadow_740_1910"/>
</filter>
<filter id="filter1_di_740_1910" x="-1.63404" y="186.826" width="259.268" height="9.80423" filterUnits="userSpaceOnUse" color-interpolation-filters="sRGB">
<feFlood flood-opacity="0" result="BackgroundImageFix"/>
<feColorMatrix in="SourceAlpha" type="matrix" values="0 0 0 0 0 0 0 0 0 0 0 0 0 0 0 0 0 0 127 0" result="hardAlpha"/>
<feOffset dy="1.63404"/>
<feGaussianBlur stdDeviation="0.817021"/>
<feComposite in2="hardAlpha" operator="out"/>
<feColorMatrix type="matrix" values="0 0 0 0 0 0 0 0 0 0.517647 0 0 0 0 0.803922 0 0 0 0.1 0"/>
<feBlend mode="multiply" in2="BackgroundImageFix" result="effect1_dropShadow_740_1910"/>
<feBlend mode="normal" in="SourceGraphic" in2="effect1_dropShadow_740_1910" result="shape"/>
<feColorMatrix in="SourceAlpha" type="matrix" values="0 0 0 0 0 0 0 0 0 0 0 0 0 0 0 0 0 0 127 0" result="hardAlpha"/>
<feOffset dy="-1.63404"/>
<feGaussianBlur stdDeviation="0.817021"/>
<feComposite in2="hardAlpha" operator="arithmetic" k2="-1" k3="1"/>
<feColorMatrix type="matrix" values="0 0 0 0 0 0 0 0 0 0.517647 0 0 0 0 0.803922 0 0 0 0.1 0"/>
<feBlend mode="multiply" in2="shape" result="effect2_innerShadow_740_1910"/>
</filter>
<filter id="filter2_di_740_1910" x="-1.63404" y="196.902" width="259.268" height="9.80423" filterUnits="userSpaceOnUse" color-interpolation-filters="sRGB">
<feFlood flood-opacity="0" result="BackgroundImageFix"/>
<feColorMatrix in="SourceAlpha" type="matrix" values="0 0 0 0 0 0 0 0 0 0 0 0 0 0 0 0 0 0 127 0" result="hardAlpha"/>
<feOffset dy="1.63404"/>
<feGaussianBlur stdDeviation="0.817021"/>
<feComposite in2="hardAlpha" operator="out"/>
<feColorMatrix type="matrix" values="0 0 0 0 0 0 0 0 0 0.517647 0 0 0 0 0.803922 0 0 0 0.1 0"/>
<feBlend mode="multiply" in2="BackgroundImageFix" result="effect1_dropShadow_740_1910"/>
<feBlend mode="normal" in="SourceGraphic" in2="effect1_dropShadow_740_1910" result="shape"/>
<feColorMatrix in="SourceAlpha" type="matrix" values="0 0 0 0 0 0 0 0 0 0 0 0 0 0 0 0 0 0 127 0" result="hardAlpha"/>
<feOffset dy="-1.63404"/>
<feGaussianBlur stdDeviation="0.817021"/>
<feComposite in2="hardAlpha" operator="arithmetic" k2="-1" k3="1"/>
<feColorMatrix type="matrix" values="0 0 0 0 0 0 0 0 0 0.517647 0 0 0 0 0.803922 0 0 0 0.1 0"/>
<feBlend mode="multiply" in2="shape" result="effect2_innerShadow_740_1910"/>
</filter>
<filter id="filter3_di_740_1910" x="76.6266" y="66.3766" width="97.1458" height="97.6724" filterUnits="userSpaceOnUse" color-interpolation-filters="sRGB">
<feFlood flood-opacity="0" result="BackgroundImageFix"/>
<feColorMatrix in="SourceAlpha" type="matrix" values="0 0 0 0 0 0 0 0 0 0 0 0 0 0 0 0 0 0 127 0" result="hardAlpha"/>
<feOffset dy="1.63404"/>
<feGaussianBlur stdDeviation="0.817021"/>
<feComposite in2="hardAlpha" operator="out"/>
<feColorMatrix type="matrix" values="0 0 0 0 1 0 0 0 0 1 0 0 0 0 1 0 0 0 0.2 0"/>
<feBlend mode="normal" in2="BackgroundImageFix" result="effect1_dropShadow_740_1910"/>
<feBlend mode="normal" in="SourceGraphic" in2="effect1_dropShadow_740_1910" result="shape"/>
<feColorMatrix in="SourceAlpha" type="matrix" values="0 0 0 0 0 0 0 0 0 0 0 0 0 0 0 0 0 0 127 0" result="hardAlpha"/>
<feOffset dy="0.817021"/>
<feGaussianBlur stdDeviation="0.408511"/>
<feComposite in2="hardAlpha" operator="arithmetic" k2="-1" k3="1"/>
<feColorMatrix type="matrix" values="0 0 0 0 0 0 0 0 0 0 0 0 0 0 0 0 0 0 0.1 0"/>
<feBlend mode="normal" in2="shape" result="effect2_innerShadow_740_1910"/>
</filter>
<linearGradient id="paint0_linear_740_1910" x1="128" y1="13.0723" x2="128" y2="228.221" gradientUnits="userSpaceOnUse">
<stop stop-color="#5BB1E0"/>
<stop offset="0.229272" stop-color="#0591DE"/>
</linearGradient>
<linearGradient id="paint1_linear_740_1910" x1="128" y1="32.817" x2="128" y2="50.7915" gradientUnits="userSpaceOnUse">
<stop stop-color="#003C5C"/>
<stop offset="1" stop-color="#003C5C" stop-opacity="0"/>
</linearGradient>
<linearGradient id="paint2_linear_740_1910" x1="128" y1="0" x2="128" y2="228.221" gradientUnits="userSpaceOnUse">
<stop stop-color="#57ADDB"/>
<stop offset="0.229272" stop-color="#098DD6"/>
</linearGradient>
<linearGradient id="paint3_linear_740_1910" x1="128" y1="32.817" x2="128" y2="50.7915" gradientUnits="userSpaceOnUse">
<stop stop-color="#003C5C"/>
<stop offset="1" stop-color="#003C5C" stop-opacity="0"/>
</linearGradient>
<linearGradient id="paint4_linear_740_1910" x1="128" y1="36.4937" x2="128" y2="215.149" gradientUnits="userSpaceOnUse">
<stop stop-color="#73D7FF"/>
<stop offset="1" stop-color="#6BCBF3"/>
</linearGradient>
</defs>
</svg>
