<svg width="256" height="256" viewBox="0 0 256 256" fill="none" xmlns="http://www.w3.org/2000/svg">
<rect width="256" height="256" fill="#057CFB"/>
<path d="M34.4844 90.0643L34.8747 96.7912L28.1813 97.366L27.7911 90.6392L34.4844 90.0643ZM27.5639 124.68L28.7945 124.574C29.4548 124.518 29.7372 124.186 29.6587 122.832L28.3131 99.6374L35.0065 99.0626L36.494 124.703C36.7448 129.028 35.4955 130.891 33.7847 131.038L27.9617 131.538L27.5639 124.68Z" fill="white"/>
<path d="M49.901 122.059C40.5363 122.864 37.8974 116.374 37.5807 110.914L37.5351 110.127C37.2208 104.711 39.0669 98.0554 48.4316 97.2512L50.5627 97.0682C60.3776 96.2253 62.4986 102.628 62.8078 107.957L62.8534 108.743C63.1676 114.16 61.9971 121.021 52.002 121.879L49.901 122.059ZM50.5841 115.635C55.1764 115.241 56.2144 111.816 56.0548 109.064L56.0421 108.845C55.8723 105.919 54.4068 103.016 49.9045 103.402L49.8745 103.405C45.2822 103.799 44.2239 106.875 44.3962 109.845L44.4089 110.064C44.5686 112.816 46.0218 116.027 50.5841 115.635Z" fill="white"/>
<path d="M86.3752 94.6511L87.7385 118.152L81.1052 118.721L80.8695 114.659C80.1224 115.82 77.984 119.516 73.3016 119.918L73.0615 119.939C67.5087 120.416 65.0888 115.619 64.8328 111.207L63.9839 96.5741L70.7373 95.9941L71.4114 107.613C71.6116 111.064 73.0716 113.353 75.893 113.111C78.8045 112.861 80.5459 110.121 80.3254 106.321L79.6818 95.226L86.3752 94.6511Z" fill="white"/>
<path d="M106.307 116.557L99.6139 117.132L98.2506 93.6313L104.884 93.0616L105.12 97.124C105.747 95.9727 107.885 92.2771 112.537 91.8776L112.747 91.8595C116.199 91.5631 118.329 93.4434 119.472 95.9792C120.604 94.17 123.013 90.978 127.335 90.6068L127.575 90.5862C132.948 90.1248 135.295 94.7081 135.551 99.1199L136.412 113.971L129.659 114.551L128.985 102.932C128.787 99.5252 127.625 97.1667 124.984 97.3935C122.132 97.6384 120.518 100.499 120.731 104.168L121.375 115.263L114.621 115.843L113.947 104.224C113.75 100.817 112.557 98.4607 109.916 98.6875C107.065 98.9324 105.451 101.793 105.664 105.462L106.307 116.557Z" fill="white"/>
<path d="M152.631 102.087L152.588 101.344L146.278 103.335C144.59 103.875 143.898 104.417 143.974 105.728L143.976 105.771C144.05 107.038 144.791 108.379 147.072 108.183C150.674 107.874 152.793 104.882 152.631 102.087ZM153.229 109.279C152.55 110.566 150.741 113.18 145.968 113.59L145.578 113.623C140.175 114.087 137.861 110.599 137.628 106.58L137.611 106.274C137.36 101.95 139.192 99.7291 143.986 98.6589L151.311 97.0202C152.057 96.8684 152.304 96.452 152.261 95.7094C152.21 94.8358 151.849 93.8133 147.947 94.1484L147.797 94.1612C143.805 94.5041 143.732 96.3541 143.717 97.1456L137.504 97.6791L137.499 97.5918C137.319 94.4904 137.668 89.5877 146.673 88.8144L148.323 88.6726C157.688 87.8684 158.532 92.0102 158.729 95.4173L159.251 104.416C159.292 105.115 159.5 105.58 160.16 105.523L161.031 105.448L161.401 111.826L155.968 112.292C154.707 112.4 153.596 111.442 153.229 109.279Z" fill="white"/>
<path d="M181.566 110.752C172.141 111.562 170.871 106.315 170.696 103.301L170.681 103.039L177.585 102.446C177.663 103.273 177.98 105.617 181.912 105.279L181.972 105.274C185.694 104.954 186.081 103.824 186.015 102.688L186.01 102.601C185.941 101.421 185.505 100.668 182.349 100.852L179.462 101.012C172.423 101.353 170.532 97.8717 170.332 94.4209L170.317 94.1588C170.109 90.577 171.242 86.7044 180.096 85.944L181.297 85.8409C189.491 85.1372 191.627 88.6851 191.84 92.3543L191.858 92.6601L185.045 93.2452C184.934 92.3768 184.485 90.8789 180.913 91.1856L180.883 91.1882C177.672 91.464 177.077 92.1296 177.143 93.2654L177.148 93.3527C177.208 94.4011 177.822 95.0947 180.648 94.9397L183.535 94.7796C191.021 94.3562 192.696 96.7146 192.968 101.388L192.983 101.651C193.234 105.975 191.711 109.881 182.796 110.647L181.566 110.752Z" fill="white"/>
<path d="M205.489 89.2507C202.127 89.5394 200.712 91.1534 200.347 93.687L211.152 92.7591C210.587 90.3054 208.88 88.9594 205.519 89.2481L205.489 89.2507ZM218.19 98.6516C218.375 101.84 217.267 107.686 207.632 108.514L205.921 108.661C197.307 109.4 194.206 103.784 193.848 97.6253L193.793 96.6643C193.443 90.6363 195.567 84.6154 204.302 83.8653L206.132 83.7081C215.587 82.8961 217.761 89.6893 218.093 95.4115L218.187 97.0277L200.508 98.5459C201.058 101.264 202.785 102.96 206.477 102.643L206.507 102.64C210.949 102.259 211.53 99.7943 211.585 99.175L218.188 98.6079L218.19 98.6516Z" fill="white"/>
<path d="M218.036 74.3011L226.201 73.6L225.442 96.4046L221.42 96.75L218.036 74.3011ZM227.192 98.4931L227.636 106.137L220.372 106.761L219.929 99.1169L227.192 98.4931Z" fill="white"/>
<path d="M37.4385 153.553V153.795C37.4385 157.846 40.6106 162.259 47.6199 162.259H47.8757C55.2943 162.259 57.2897 157.725 57.2897 153.795V153.553C57.2897 149.321 55.2943 145.15 47.8757 145.15H47.6199C40.5083 145.15 37.4385 149.321 37.4385 153.553ZM26.0292 137.532H37.4385V142.187C38.6152 140.917 43.0664 136.746 51.4059 136.746H52.3269C64.8106 136.746 68.9548 144.122 68.9548 153.07V154.218C68.9548 162.743 64.606 170.845 51.9687 170.845H51.1501C42.9129 170.845 38.4106 166.673 37.4385 165.464V181.425H26.0292V137.532Z" fill="white"/>
<path d="M83.605 153.251V170.059H72.1957V137.532H83.5026V143.275C84.5259 141.462 87.7492 136.806 94.6561 136.806H95.2189C103.2 136.806 106.424 142.973 106.424 151.316V153.191H95.4236C95.4236 148.958 93.8887 145.391 89.591 145.391H89.5399C85.7026 145.391 83.605 149.019 83.605 153.251Z" fill="white"/>
<path d="M133.521 155.609V154.581L122.623 156.576C119.707 157.12 118.479 157.785 118.479 159.599V159.66C118.479 161.413 119.605 163.348 123.493 163.348C129.633 163.348 133.521 159.478 133.521 155.609ZM133.828 165.585C132.549 167.277 129.223 170.663 121.089 170.663H120.423C111.214 170.663 107.633 165.585 107.633 160.022V159.599C107.633 153.614 110.958 150.772 119.196 149.865L131.782 148.475C133.061 148.354 133.521 147.81 133.521 146.782C133.521 145.573 133.009 144.122 126.358 144.122H126.103C119.298 144.122 118.991 146.661 118.889 147.749H108.298V147.628C108.298 143.336 109.372 136.625 124.721 136.625H127.535C143.498 136.625 144.521 142.429 144.521 147.145V159.599C144.521 160.567 144.828 161.232 145.954 161.232H147.437V170.059H138.177C136.028 170.059 134.237 168.608 133.828 165.585Z" fill="white"/>
<path d="M166.007 170.965C149.942 170.965 148.304 163.589 148.304 159.418V159.055H160.072C160.123 160.204 160.43 163.469 167.132 163.469H167.235C173.579 163.469 174.346 161.957 174.346 160.385V160.264C174.346 158.632 173.681 157.544 168.309 157.423L163.397 157.302C151.425 156.939 148.56 151.921 148.56 147.145V146.782C148.56 141.824 150.863 136.625 165.956 136.625H168.002C181.97 136.625 185.244 141.764 185.244 146.842V147.266H173.63C173.528 146.056 172.914 143.94 166.825 143.94H166.774C161.3 143.94 160.225 144.787 160.225 146.359V146.48C160.225 147.931 161.197 148.958 166.007 149.079L170.918 149.2C183.658 149.503 186.267 152.949 186.267 159.418V159.781C186.267 165.766 183.3 170.965 168.104 170.965H166.007Z" fill="white"/>
<path d="M213.713 155.609V154.581L202.815 156.576C199.899 157.12 198.671 157.785 198.671 159.599V159.66C198.671 161.413 199.797 163.348 203.685 163.348C209.825 163.348 213.713 159.478 213.713 155.609ZM214.02 165.585C212.741 167.277 209.415 170.663 201.28 170.663H200.615C191.406 170.663 187.824 165.585 187.824 160.022V159.599C187.824 153.614 191.15 150.772 199.387 149.865L211.973 148.475C213.252 148.354 213.713 147.81 213.713 146.782C213.713 145.573 213.201 144.122 206.55 144.122H206.294C199.49 144.122 199.183 146.661 199.08 147.749H188.49V147.628C188.49 143.336 189.564 136.625 204.913 136.625H207.727C223.69 136.625 224.713 142.429 224.713 147.145V159.599C224.713 160.567 225.02 161.232 226.145 161.232H227.629V170.059H218.369C216.22 170.059 214.429 168.608 214.02 165.585Z" fill="white"/>
</svg>
