<svg width="256" height="256" viewBox="0 0 256 256" fill="none" xmlns="http://www.w3.org/2000/svg">
<rect width="256" height="256" fill="#ECEAE4"/>
<path d="M93.1072 145.415C92.5836 146.462 93.3451 147.694 94.5159 147.694H129.848C131.019 147.694 131.781 146.462 131.257 145.415L113.591 110.083C113.01 108.922 111.354 108.922 110.773 110.083L93.1072 145.415Z" stroke="black" stroke-width="3"/>
<path d="M185.985 145.415C185.462 146.462 186.223 147.694 187.394 147.694H222.726C223.897 147.694 224.659 146.462 224.135 145.415L206.469 110.083C205.888 108.922 204.232 108.922 203.651 110.083L185.985 145.415Z" stroke="black" stroke-width="3"/>
<path d="M51.3079 144.877C50.7275 146.038 49.0709 146.038 48.4905 144.877L30.8243 109.544C30.3006 108.497 31.0621 107.265 32.233 107.265H99.2532C100.424 107.265 101.186 108.497 100.662 109.544L82.9957 144.877C82.4153 146.038 80.7587 146.038 80.1783 144.877L67.1518 118.824C66.5714 117.663 64.9148 117.663 64.3344 118.824L51.3079 144.877Z" stroke="black" stroke-width="3"/>
<path d="M144.186 144.877C143.606 146.038 141.949 146.038 141.369 144.877L123.702 109.544C123.179 108.497 123.94 107.265 125.111 107.265H192.131C193.302 107.265 194.064 108.497 193.54 109.544L175.874 144.877C175.293 146.038 173.637 146.038 173.056 144.877L160.03 118.824C159.449 117.663 157.793 117.663 157.212 118.824L144.186 144.877Z" stroke="black" stroke-width="3"/>
</svg>
