<svg width="400" height="400" viewBox="0 0 400 400" fill="none" xmlns="http://www.w3.org/2000/svg">
<rect width="400" height="400" fill="white"/>
<path d="M92 155H119.738V221.87H181.286V244H92V155Z" fill="#181818"/>
<path d="M195.581 244V155H271.414C296.771 155 303.795 164.809 303.795 175.336V177.011C303.795 188.495 294.033 193.16 289.747 194.356C295.819 195.911 308.795 201.175 308.795 216.726V218.401C308.795 232.516 300.819 244 272.128 244H195.581ZM266.652 173.781H223.319V188.255H266.652C274.39 188.255 276.295 184.667 276.295 181.078V180.839C276.295 177.13 274.39 173.781 266.652 173.781ZM269.033 207.156H223.319V224.621H269.033C278.319 224.621 279.985 219.477 279.985 215.888V215.41C279.985 211.582 278.2 207.156 269.033 207.156Z" fill="#181818"/>
</svg>
